<svg width="219" height="201" xmlns="http://www.w3.org/2000/svg" fill="none">
 <g id="Layer_1">
  <title>Layer 1</title>
  <g id="svg_130" mask="url(#mask0)">
   <path id="svg_1" fill="#FFCAD0" d="m178.20657,110.34195c0,0 11.699,-9.249 12.009,-11.897c0.584,-4.986 2.371,-8.894 13.076,-12.199c0,0 0.83,1.588 -0.656,3.314c-1.623,1.872 -2.909,2.529 -2.909,2.529c0,0 2.836,1.087 7.058,-2.218c4.222,-3.297 6,-6.164 7.778,-5.461c0,0 2.097,-1.899 3.091,-1.598c0,0 0.73,0.219 0.593,1.005c1.65,-0.256 1.313,4.51 -1.623,8.382c-4.222,5.57 -9.493,10.364 -13.806,11.943c-3.237,1.188 -16.614,14.82 -16.614,14.82l-7.997,-8.62z"/>
   <path id="svg_2" fill="#04D361" d="m142.07857,157.53195c-5.106,1.726 -33.437,-41.903 -33.437,-41.903c-10.952,-12.619 -1.122,-54.1834 8.79,-39.61c0,0 25.778,46.696 28.559,50.458c3.456,4.675 14.955,24.672 -3.912,31.055z"/>
   <path id="svg_3" fill="#04D361" d="m110.15457,200.83995l-74.699,0c0,0 -5.736,-2.529 -0.748,-13.559c1.869,-4.118 1.058,-14.729 0.748,-29.293c-0.629,-28.799 -9.164,-76.6 1.368,-82.079c6.31,-3.296 19.714,-7.633 29.443,-10.601c0.584,-0.1643 1.149,-0.3378 1.706,-0.5022c5.68,-1.6984 9.738,-2.8215 9.738,-2.8215c0,0 4.705,0.6849 14.262,3.5155c0.519,0.1552 1.057,0.3196 1.614,0.4839c2.489,0.7579 5.261,1.6433 8.343,2.6933c16.705,5.689 14.827,3.662 17.043,24.554c1.769,16.682 -8.818,107.609 -8.818,107.609z"/>
   <path id="svg_4" fill="#F2F2FA" d="m93.58657,65.97455c-0.219,3.5424 -1.806,6.6744 -4.222,8.9664c-2.453,2.347 -5.781,3.771 -9.411,3.771c-7.486,0 -13.541,-5.999 -13.696,-13.404c0.584,-0.1643 1.149,-0.3378 1.706,-0.5022c5.68,-1.6984 9.738,-2.8215 9.738,-2.8215c0,0 4.705,0.6849 14.262,3.5155c0.519,0.1461 1.066,0.3104 1.623,0.4748z"/>
   <path id="svg_5" fill="#FBD5D9" d="m91.94457,36.07035l-1.176,22.7546l-0.337,6.4922c-0.137,2.7578 -1.35,5.2138 -3.228,6.9848c-1.86,1.772 -4.377,2.849 -7.131,2.849c-5.827,0 -10.523,-4.812 -10.368,-10.6374l0.292,-11.5873l0.492,-19.2483l21.456,2.3924z"/>
   <path id="svg_6" fill="#FFA4AD" d="m91.94457,40.61755l-1.176,21.4306c-10.067,0.4018 -17.407,-3.6889 -20.772,-9.1493l0.492,-14.6554l21.456,2.3741z"/>
   <path id="svg_7" fill="#8F4A3F" d="m63.80457,13.79055c0,0 -9.647,-1.2053 -8.544,10.9024c0.858,9.3868 13.596,21.9146 13.596,21.9146c0,0 8.043,-28.288 -5.052,-32.817z"/>
   <path id="svg_8" fill="#0E1235" d="m103.20657,22.51065c-0.657,1.4975 -1.669,2.8033 -2.499,4.2094c-0.82,1.4062 -1.477,3.0133 -1.294,4.6386c-0.165,-2.6388 -1.906,-4.8577 -3.411,-7.0218c-1.504,-2.1731 -2.872,-4.8029 -2.152,-7.3413c0.684,-2.438 5.088,-6.2822 7.769,-4.7025c2.982,1.7531 2.754,7.5605 1.587,10.2176z"/>
   <path id="svg_9" fill="#FBD5D9" d="m99.93257,22.99465c0,0 0.748,7.4144 -0.291,15.6232c-1.204,9.4872 -0.776,20.6271 -14.736,21.3759c-14.9,0.7944 -19.833,-15.9064 -19.833,-15.9064c0,0 -7.915,-1.4792 -8.453,-6.83c-0.538,-5.3599 4.988,-5.6613 6.793,-4.1546c0,0 2.043,-19.9697 20.472,-19.9697c16.258,-0.0182 16.048,9.8616 16.048,9.8616z"/>
   <path id="svg_10" fill="#9A5449" d="m82.42457,38.23415c0,0.8125 -0.656,1.479 -1.477,1.479c-0.82,0 -1.477,-0.6574 -1.477,-1.479c0,-0.8125 0.657,-1.479 1.477,-1.479c0.821,0 1.477,0.6665 1.477,1.479z"/>
   <path id="svg_11" fill="#9A5449" d="m95.77457,38.23415c0,0.8125 -0.657,1.479 -1.477,1.479c-0.821,0 -1.477,-0.6574 -1.477,-1.479c0,-0.8125 0.656,-1.479 1.477,-1.479c0.82,0 1.477,0.6665 1.477,1.479z"/>
   <path id="svg_12" stroke-linejoin="round" stroke-linecap="round" stroke-miterlimit="10" stroke-width="1.0274" stroke="#561E15" d="m75.57757,33.09365c0,0 2.188,-3.6068 6.848,-2.3102"/>
   <path id="svg_13" stroke-linejoin="round" stroke-linecap="round" stroke-miterlimit="10" stroke-width="1.0274" stroke="#561E15" d="m90.45857,30.72865c0,0 3.365,-3.0772 6.675,0.2922"/>
   <path id="svg_14" stroke-linejoin="round" stroke-linecap="round" stroke-miterlimit="10" stroke-width="0.7706" stroke="#D66D78" d="m87.50457,34.39025c0,0 1.595,4.0815 2.954,6.62c1.359,2.5384 -2.653,3.6707 -2.653,3.6707"/>
   <path id="svg_15" stroke-linejoin="round" stroke-linecap="round" stroke-miterlimit="10" stroke-width="0.7706" stroke="#D66D78" d="m82.16057,49.24645c0,0 3.292,3.1959 7.523,1.2418"/>
   <path id="svg_16" stroke-linejoin="round" stroke-linecap="round" stroke-miterlimit="10" stroke-width="0.7706" stroke="#D66D78" d="m63.14757,38.97335c0,0 -0.045,-4.5921 -3.473,-3.3414"/>
   <path id="svg_17" fill="#8F4A3F" d="m67.67157,17.62555c0,0 8.38,8.5467 3.793,11.8156c-5.106,3.6433 -5.9,8.7932 -5.9,8.7932c0,0 0.11,-1.817 -2.161,-5.1408c-2.27,-3.3328 -7.222,-15.1484 4.268,-15.468z"/>
   <path id="svg_18" fill="#04D361" d="m142.07857,157.53195c6.092,3.972 52.387,-45.546 52.387,-45.546l-8.216,-10.765c0,0 -35.198,22.115 -40.259,25.256c-7.295,4.52 -24.401,17.705 -3.912,31.055z"/>
   <path id="svg_19" fill="#03A14A" d="m117.45857,128.74195c0,0 2.07,-22.636 1.715,-29.823c0,0 2.945,19.002 3.018,36.561l-4.733,-6.738z"/>
   <path id="svg_20" fill="#04D361" d="m39.23057,121.02595c0,0 10.842,-46.486 -0.757,-45.939c0,0 -3.784,0.457 -11.188,11.962c-5.18,8.045 -10.851,21.988 -21.192,44.669c-4.887,10.72 -10.997,25.229 0.347,26.006c6.136,0.42 12.574,-2.941 16.367,-9.999c6.949,-12.93 16.423,-26.699 16.423,-26.699z"/>
   <path id="svg_21" fill="#03A14A" d="m48.93257,178.88895l59.006,-13.925c-0.009,0 -18.565,13.925 -59.006,13.925z"/>
   <path id="svg_22" fill="#03A14A" d="m33.08457,130.36695c0,0 9.52,-16.883 14.581,-25.12l-11.882,64.584c0,0 -1.158,-26.379 -2.699,-39.464z"/>
   <path id="svg_23" fill="#03A14A" d="m71.02657,152.36395l-35.288,16.499l1.814,-16.965l33.474,0.466z"/>
   <path id="svg_24" stroke="#04D361" fill="#04D361" d="m76.80757,149.54095l0,0l5.827,-31.858l0,-0.002c0.303,-1.678 1.764,-2.894 3.475,-2.894l12.383,0c2.204,0 3.874,2 3.474,4.176l0,0.001l-5.826,31.857c-0.312,1.681 -1.775,2.896 -3.475,2.896l-12.383,0c-2.205,0 -3.875,-1.999 -3.475,-4.176z"/>
   <path id="svg_25" fill="white" d="m94.19757,155.56795l-12.384,0c-2.516,0 -4.422,-2.282 -3.966,-4.766l5.827,-31.858c0.346,-1.918 2.015,-3.306 3.966,-3.306l12.383,0c2.517,0 4.423,2.283 3.967,4.767l-5.827,31.858c-0.346,1.917 -2.015,3.305 -3.966,3.305z"/>
   <path id="svg_26" stroke="#04D361" fill="#04D361" d="m84.99557,126.92795l0.001,-0.005l1.422,-7.78l0,0l0.001,-0.003c0.021,-0.122 0.129,-0.217 0.264,-0.217l2.216,0c0.172,0 0.297,0.155 0.266,0.319l-0.001,0.005l-1.423,7.779l0,0l0,0.004c-0.021,0.122 -0.129,0.216 -0.265,0.216l-2.215,0c-0.172,0 -0.298,-0.154 -0.266,-0.318z"/>
   <path id="svg_27" fill="#FFCAD0" d="m59.39157,138.33795c0,0 6.037,-0.201 10.66,-1.616c1.988,-0.612 5.927,-1.324 7.231,-3.214c1.313,-1.908 1.194,-6.027 2.507,-6.2c1.013,-0.137 3.037,3.086 2.517,5.259c-0.511,2.128 -0.757,3.306 -1.532,4.256c-0.255,0.319 8.253,0.922 13.642,-0.265c3.693,-0.813 2.598,2.849 0.091,3.999c0,0 0.893,2.237 -1.724,2.995c0,0 0.028,2.986 -2.471,3.123c-0.282,0.694 -0.766,2.173 -2.927,2.703c-3.146,0.776 -7.897,1.068 -12.684,0.639c-2.434,-0.219 -13.669,1.753 -13.669,1.753l-1.641,-13.432z"/>
   <path id="svg_28" fill="#04D361" d="m6.07557,157.89695c8.617,1.507 59.982,-4.301 59.982,-4.301l-1.277,-17.997c0,0 -41.854,1.954 -47.435,1.452c-18.456,-1.635 -21.994,18.974 -11.27,20.846z"/>
   <path id="svg_29" fill="#8F4A3F" d="m69.70457,4.05615c0.885,-0.8857 1.87,-1.8262 3.11,-1.9631c1.24,-0.137 2.653,1.0226 2.243,2.2097c4.222,-1.8354 8.635,-3.205 13.149,-4.0816c1.131,-0.2191 2.352,-0.4018 3.401,0.1004c1.04,0.5022 1.687,1.9541 0.976,2.8581c2.188,0.8218 4.614,0.283 6.939,0.0091c2.325,-0.2739 4.979,-0.1552 6.556,1.5705c1.468,1.598 1.496,4.0086 1.45,6.1818c-0.073,2.9767 -0.146,5.9717 -0.821,8.8754c-1.003,4.2916 -3.337,8.2545 -6.611,11.2038c0.976,-3.342 -0.766,-7.0492 -3.51,-9.195c-2.736,-2.1549 -6.265,-3.0041 -9.721,-3.3968c-4.139,-0.4748 -8.352,-0.3652 -12.474,0.3105c-3.109,0.5113 -7.55,2.7302 -10.641,1.324c-6.848,-3.1046 3.31,-13.3587 5.954,-16.0068z"/>
  </g>
 </g>
</svg>